# xmcd
#
# Track frame offsets: 
#        150
#        7621
#        17588
#        35143
#        47364
#        56525
#        65059
#        76453
#        86146
#        97749
#        108004
#        116645
#        128507
#        138153
#        146302
#        154871
#        162777
#        182522
#
# Disc length: 2620 seconds
#
# Revision: 1
# Processed by: cddbd v1.5.2PL0 Copyright (c) Steve Scherf et al.
# Submitted via: ExactAudioCopy v1.0b3
#
DISCID=d20a3a12
DTITLE=老泥车 男声四重唱组 - 岁月燃情
DYEAR=2001
DGENRE=Pop
TTITLE0=人家的船儿桨成双
TTITLE1=弹起我心爱的土琵琶
TTITLE2=下四川（青海民歌）
TTITLE3=半个月亮爬上来（青海民歌）
TTITLE4=游击队之歌（贺绿汀词曲）
TTITLE5=太阳出来喜洋洋（四川民歌）
TTITLE6=可爱的一朵玫瑰花（哈萨克民歌）
TTITLE7=看秧歌（山西民歌）
TTITLE8=爱江山更爱美人（电视插曲）
TTITLE9=在银色的月光下（新疆民歌）
TTITLE10=编花篮（河南民歌）
TTITLE11=三十里铺（陕西民歌）
TTITLE12=马车夫之歌（新疆民歌）
TTITLE13=黄杨扁担（四川民歌）
TTITLE14=走绛州（山西民歌）
TTITLE15=阿拉木罕（新疆民歌）
TTITLE16=澧水船夫号子（湖南民歌）
TTITLE17=我们的老泥车
EXTD=
EXTT0=
EXTT1=
EXTT2=
EXTT3=
EXTT4=
EXTT5=
EXTT6=
EXTT7=
EXTT8=
EXTT9=
EXTT10=
EXTT11=
EXTT12=
EXTT13=
EXTT14=
EXTT15=
EXTT16=
EXTT17=
PLAYORDER=
